<svg xmlns="http://www.w3.org/2000/svg" viewBox="0 0 64 64">
  <defs>
    <linearGradient id="w" x1="0" y1="0" x2="1" y2="1"><stop stop-color="#d77864"/><stop offset=".55" stop-color="#a7434b"/><stop offset="1" stop-color="#542230"/></linearGradient>
  </defs>
  <rect width="64" height="64" rx="14" fill="#191a34"/>
  <path d="M27 7c18 7-9 17 7 28 14 10-2 13 4 22" fill="none" stroke="#351824" stroke-width="18" stroke-linecap="round" opacity=".65"/>
  <path d="M27 7c18 7-9 17 7 28 14 10-2 13 4 22" fill="none" stroke="url(#w)" stroke-width="13" stroke-linecap="round"/>
  <g fill="none" stroke="#542230" stroke-width="1.2" opacity=".75">
    <path d="M25 15l14 2"/><path d="M22 25l14 3"/><path d="M25 36l15 1"/><path d="M29 46l14-2"/><path d="M31 53l13-3"/>
  </g>
  <path d="M27 10c7 3 6 7 3 10" fill="none" stroke="#ffd0ad" stroke-width="2" stroke-linecap="round" opacity=".6"/>
</svg>
